<svg width="105" height="75" viewBox="0 0 105 75" fill="none" xmlns="http://www.w3.org/2000/svg">
<rect width="105" height="75" rx="4" fill="#0060AF"/>
<path fill-rule="evenodd" clip-rule="evenodd" d="M21.5962 44.6868C21.5962 43.6803 21.6078 40.9898 21.5814 40.6583C21.6044 36.6548 18.5165 33.8307 16.5657 34.0508C15.2158 34.1612 14.0842 34.6801 13.477 36.1728C12.9138 37.5639 13.4174 39.4142 15.2892 39.8484C17.2905 40.3147 18.4595 40.7027 19.3053 41.25C20.3417 41.9201 21.1877 43.2003 21.2102 44.6884" fill="white"/>
<path fill-rule="evenodd" clip-rule="evenodd" d="M20.7594 44.6884C20.7659 43.3981 20.002 42.2572 19.0035 41.6441C18.1178 41.1022 16.9288 40.7463 15.0106 40.2876C14.4177 40.1446 13.7974 39.827 13.6054 39.4222C13.0975 39.9046 13.0052 40.9893 13.0946 41.6234C13.1984 42.3567 14.1078 43.5657 15.477 43.613C16.3131 43.6447 17.3703 43.4434 17.8773 43.3419C18.7518 43.1638 20.1355 43.6802 20.3558 44.6868" fill="white"/>
<path fill-rule="evenodd" clip-rule="evenodd" d="M22.3033 27.8112C19.9816 27.8112 17.9764 29.2545 17.9834 31.7519C17.9907 33.852 19.7823 34.9763 20.4219 35.7793C21.388 36.9894 21.9109 38.4217 21.965 40.6134C22.0075 42.3576 22.0053 44.08 22.0147 44.6904H22.527C22.5183 44.0518 22.4951 42.2233 22.5214 40.5594C22.5562 38.3671 23.098 36.9894 24.0645 35.7793C24.7097 34.9763 26.4996 33.852 26.5035 31.7519C26.5124 29.2545 24.508 27.8112 22.1886 27.8112" fill="white"/>
<path fill-rule="evenodd" clip-rule="evenodd" d="M22.8925 44.6868C22.8925 43.6803 22.8804 40.9898 22.9062 40.6583C22.8835 36.6548 25.9695 33.8307 27.922 34.0508C29.2719 34.1612 30.402 34.6801 31.0111 36.1728C31.5736 37.5639 31.0674 39.4142 29.198 39.8484C27.1952 40.3147 26.0279 40.7027 25.18 41.25C24.1448 41.9201 23.3579 43.2003 23.3337 44.6884" fill="white"/>
<path fill-rule="evenodd" clip-rule="evenodd" d="M23.7286 44.6884C23.7213 43.3981 24.485 42.2572 25.4806 41.6441C26.3701 41.1022 27.5604 40.7463 29.4769 40.2876C30.071 40.1446 30.6905 39.827 30.8792 39.4222C31.3895 39.9046 31.4818 40.9893 31.3922 41.6234C31.2864 42.3567 30.3792 43.5657 29.0124 43.613C28.1767 43.6447 27.1138 43.4434 26.609 43.3419C25.7378 43.1638 24.3503 43.6802 24.129 44.6868" fill="white"/>
<path fill-rule="evenodd" clip-rule="evenodd" d="M24.4443 48.8537L24.1475 46.8103L24.8646 46.7079C25.0389 46.6855 25.2515 46.7142 25.3365 46.8171C25.4304 46.9248 25.4592 47.0139 25.4773 47.155C25.5046 47.3299 25.451 47.5316 25.2423 47.6322V47.6384C25.4751 47.6384 25.6159 47.7962 25.657 48.0625C25.6628 48.119 25.6807 48.2547 25.6628 48.3681C25.6155 48.6379 25.4449 48.7249 25.1566 48.7629L24.4443 48.8537ZM24.9059 48.4881C24.9909 48.4765 25.0771 48.4721 25.1445 48.4316C25.2479 48.3681 25.2384 48.2324 25.2239 48.1313C25.1882 47.9098 25.1268 47.8253 24.8774 47.8601L24.7204 47.8829L24.8199 48.4992L24.9059 48.4881ZM24.7559 47.5437C24.8508 47.5293 24.9793 47.5184 25.0329 47.4335C25.0612 47.3768 25.0969 47.3317 25.0732 47.2056C25.044 47.0562 24.9916 46.9633 24.7899 46.9993L24.6023 47.0277L24.6764 47.5514L24.7559 47.5437Z" fill="white"/>
<path fill-rule="evenodd" clip-rule="evenodd" d="M27.5508 47.6248C27.5564 47.6629 27.5629 47.7052 27.5653 47.7432C27.6233 48.1157 27.5508 48.4245 27.1064 48.5094C26.4492 48.6285 26.3234 48.2439 26.2079 47.7052L26.1463 47.4136C26.0558 46.8983 26.0169 46.5081 26.6574 46.3876C27.0185 46.3257 27.2571 46.4612 27.3564 46.8C27.3718 46.8505 27.3912 46.9004 27.3984 46.9514L27.0054 47.0279C26.96 46.9004 26.8999 46.6729 26.7231 46.692C26.4057 46.7282 26.5106 47.1003 26.5432 47.256L26.6613 47.8154C26.6968 47.9846 26.7673 48.2548 27.0419 48.2027C27.2648 48.1606 27.1675 47.8332 27.1477 47.6988" fill="white"/>
<path fill-rule="evenodd" clip-rule="evenodd" d="M28.1811 48.2432L28.0454 46.1285L28.5731 45.9766L29.6801 47.8158L29.2644 47.9331L29.0021 47.4657L28.5405 47.5963L28.6002 48.1277L28.1811 48.2432ZM28.5019 47.2548L28.8354 47.1638L28.3925 46.3081L28.5019 47.2548Z" fill="white"/>
<path fill-rule="evenodd" clip-rule="evenodd" d="M15.141 46.6443C15.3062 46.1459 15.454 45.7787 16.0846 45.9417C16.422 46.0307 16.6312 46.1707 16.6213 46.5403C16.6196 46.6224 16.5908 46.7065 16.572 46.7875L16.1795 46.6855C16.231 46.4813 16.2636 46.3194 15.9969 46.242C15.6887 46.1623 15.6136 46.5148 15.5711 46.6668L15.4115 47.221C15.3607 47.3856 15.2999 47.6577 15.5711 47.7281C15.7952 47.7847 15.931 47.5776 16.0121 47.2747L15.7378 47.206L15.8327 46.8854L16.4783 47.081L16.1718 48.1495L15.8747 48.0734L15.9416 47.8476H15.9332C15.7962 48.0325 15.6296 48.0518 15.4834 48.0252C14.8378 47.8608 14.9052 47.463 15.0593 46.9316" fill="white"/>
<path fill-rule="evenodd" clip-rule="evenodd" d="M17.5437 47.5468L17.3493 48.4161L16.9116 48.3271L17.378 46.2973L18.1241 46.456C18.5608 46.545 18.6926 46.7281 18.6308 47.1056C18.5955 47.3221 18.4823 47.5552 18.2057 47.5363L18.2028 47.5329C18.4366 47.6099 18.4564 47.7212 18.4156 47.9131C18.398 47.9951 18.2765 48.491 18.3603 48.5711L18.3632 48.6321L17.9103 48.5206C17.8915 48.3833 17.9557 48.136 17.9811 47.999C18.0065 47.8778 18.0473 47.7071 17.9168 47.6431C17.8149 47.5917 17.7768 47.5942 17.6613 47.5693L17.5437 47.5468ZM17.6183 47.2324L17.913 47.3073C18.092 47.3319 18.1915 47.2444 18.2267 47.0404C18.2586 46.8535 18.2173 46.7807 18.0567 46.7445L17.7408 46.6839L17.6183 47.2324Z" fill="white"/>
<path fill-rule="evenodd" clip-rule="evenodd" d="M20.3509 46.7506L20.7837 46.7979L20.5973 48.225C20.5067 48.6774 20.3212 48.8751 19.7932 48.8134C19.2561 48.7491 19.1286 48.5187 19.1609 48.0627L19.3488 46.637L19.785 46.6839L19.5979 48.0777C19.5778 48.2291 19.5409 48.4534 19.8263 48.4807C20.0797 48.4989 20.1372 48.3405 20.1659 48.1438" fill="white"/>
<path fill-rule="evenodd" clip-rule="evenodd" d="M21.2607 48.8913L21.3912 46.8509L22.2225 46.8848C22.6157 46.9032 22.7183 47.2056 22.7063 47.4943C22.6947 47.6698 22.6367 47.8659 22.4744 47.9722C22.3413 48.0626 22.1701 48.084 22.0116 48.0767L21.7407 48.0626L21.6866 48.9177L21.2607 48.8913ZM21.7527 47.7513L21.973 47.7629C22.152 47.7691 22.2706 47.7024 22.286 47.4547C22.295 47.217 22.1993 47.1764 21.9674 47.1669L21.7931 47.1612L21.7527 47.7513Z" fill="white"/>
<path fill-rule="evenodd" clip-rule="evenodd" d="M79.911 29.7833L76.606 35.4384C75.3585 34.4833 73.8354 33.7807 71.8919 33.7807C67.2925 33.7807 65.4241 37.0123 65.4241 39.2889C65.4241 40.979 66.5979 43.472 70.6903 43.472C72.4082 43.472 74.8501 42.3457 75.5529 41.833L72.2843 48.3938C70.7263 48.6868 70.2142 48.8685 68.8955 48.907C61.5705 49.113 58.6109 44.8711 58.6128 40.537C58.6179 34.8071 64.0218 27.8387 72.9807 27.8387C73.5294 27.8387 74.2008 28.0179 74.7749 28.2162L75.3553 27.5166" fill="white"/>
<path fill-rule="evenodd" clip-rule="evenodd" d="M93.548 27.6941L94.4839 48.2468H87.5188L87.5149 44.7222H82.7653L81.2024 48.2468H73.6484L81.5458 33.5705L79.7651 33.5595L83.1484 27.6941H93.548ZM87.4695 33.9816L84.7845 39.9598H87.5506L87.4695 33.9816Z" fill="white"/>
<path fill-rule="evenodd" clip-rule="evenodd" d="M54.2157 27.6941C57.6649 27.7123 59.614 29.4772 59.614 32.0266C59.614 34.3771 57.5584 36.4574 55.3018 37.5332C57.625 38.3385 57.826 40.3147 57.826 41.7127C57.826 45.0908 54.2306 48.2468 49.5569 48.2468H39.3638L43.3398 33.7749L41.7066 33.766L45.0452 27.6941C45.0452 27.6941 51.4108 27.6759 54.2157 27.6941V27.6941ZM50.8316 36.0271C51.5451 36.0271 52.8049 35.8568 53.1199 34.5552C53.465 33.142 52.2827 33.1039 51.7156 33.1039L49.6892 33.0957L48.9825 36.0271H50.8316ZM47.9667 39.659L47.0336 43.0369H49.4199C50.3585 43.0369 51.6379 42.5975 51.9514 41.4982C52.261 40.396 51.3666 39.659 50.4314 39.659H47.9667Z" fill="white"/>
<path fill-rule="evenodd" clip-rule="evenodd" d="M22.395 50.7723C18.8656 50.7723 15.2388 49.9529 11.6167 48.3323L11.5278 48.2911L11.4853 48.2057C9.85983 44.9713 9 41.4339 9 37.9727C9 34.5165 9.82457 31.1303 11.451 27.9002L11.4959 27.8144L11.5865 27.7716C14.9372 26.2752 18.5415 25.5175 22.3032 25.5175C25.807 25.5175 29.5495 26.3611 33.1236 27.9617L33.2151 28.0001L33.2576 28.0876C34.914 31.3816 35.7876 34.9184 35.7876 38.3224C35.7876 41.7128 34.9488 45.1022 33.2902 48.3942L33.2467 48.4805L33.1545 48.5206C29.8548 49.993 26.1341 50.7723 22.395 50.7723M11.9519 47.8888C15.4705 49.4493 18.9801 50.237 22.395 50.237C26.016 50.237 29.6169 49.4909 32.8226 48.0766C34.415 44.8866 35.2222 41.6035 35.2222 38.3224C35.2222 35.0277 34.3797 31.6009 32.7861 28.4036C29.3176 26.8665 25.6952 26.0514 22.3032 26.0514C18.6615 26.0514 15.1707 26.7796 11.9215 28.2162C10.3617 31.3468 9.56783 34.6274 9.56783 37.9727C9.56783 41.3239 10.3926 44.7523 11.9519 47.8888Z" fill="white"/>
</svg>
