<svg width="634" height="126" viewBox="0 0 634 126" fill="none" xmlns="http://www.w3.org/2000/svg">
<path d="M21.6562 118.984C18.875 118.984 16.875 118.047 15.6562 116.172C15.1562 115.391 14.9062 114.391 14.9062 113.172C14.9062 111.141 15.8125 108.047 17.625 103.891C19.4375 99.7656 24.0312 93.375 31.4062 84.7188C28.3125 83.125 25 81.6094 21.4688 80.1719C17.5 78.5781 13.7656 76.8594 10.2656 75.0156C6.79688 73.1406 4.09375 70.8594 2.15625 68.1719C0.75 66.2344 0.046875 63.9531 0.046875 61.3281C0.046875 60.3594 0.265625 58.625 0.703125 56.125C1.17188 53.625 3.625 49.5 8.0625 43.75C12.0312 38.7188 16.8906 33.7656 22.6406 28.8906C28.3906 24.0156 34.4844 19.6406 40.9219 15.7656C47.3594 11.8594 53.5625 8.875 59.5312 6.8125C64.0938 5.25 68.2031 4.46875 71.8594 4.46875C72.9844 4.46875 74.0625 4.54688 75.0938 4.70312C80.4375 5.70312 83.9062 7.73438 85.5 10.7969C86.4688 12.6719 86.9531 14.7344 86.9531 16.9844C86.9531 18.3594 86.6094 20.4375 85.9219 23.2188C85.2656 25.9688 83.7812 29.25 81.4688 33.0625C79.1875 36.875 76.8125 40.0625 74.3438 42.625C71.9062 45.1562 70.0781 46.4219 68.8594 46.4219C68.3906 46.4219 67.9219 46.3438 67.4531 46.1875C67.0156 46.0312 66.6406 45.8594 66.3281 45.6719C66.0469 45.4531 65.9062 45.2812 65.9062 45.1562C65.9062 44.75 67.3906 42.625 70.3594 38.7812C74.4844 33.625 77.4688 28.5781 79.3125 23.6406C80 21.7969 80.3438 20.0781 80.3438 18.4844C80.3438 17.5781 80.125 16.3437 79.6875 14.7812C79.2812 13.1875 77.375 11.9531 73.9688 11.0781C73.1562 10.9219 72.2656 10.8438 71.2969 10.8438C67.4844 10.8438 62.2812 12.2187 55.6875 14.9688C49.0938 17.6875 41.9062 21.7969 34.125 27.2969C26.3438 32.7656 19.6719 38.7812 14.1094 45.3438C10.0781 49.9062 7.625 53.7344 6.75 56.8281C6.4375 57.9531 6.28125 59.0312 6.28125 60.0625C6.28125 61.8125 6.875 63.5625 8.0625 65.3125C9.28125 67.0312 11.3594 68.6719 14.2969 70.2344C17.2344 71.7656 20.4844 73.2344 24.0469 74.6406C27.3594 75.9531 30.5938 77.4062 33.75 79C34.0938 79.1875 34.3906 79.3594 34.6406 79.5156C34.9219 79.6719 35.125 79.7812 35.25 79.8438C35.375 79.9062 35.5 79.9375 35.625 79.9375C35.8438 79.9375 36.0938 79.9062 36.375 79.8438C36.6562 79.75 37.0469 79.6406 37.5469 79.5156C38.2656 79.3281 38.9062 79.2344 39.4688 79.2344C40.125 79.2344 40.6406 79.3438 41.0156 79.5625C41.4219 79.7812 41.625 80.0781 41.625 80.4531C41.625 80.9219 41.375 81.5156 40.875 82.2344C40.75 82.3906 40.6875 82.5625 40.6875 82.75C40.6875 82.9375 40.7812 83.1875 40.9688 83.5C41.1562 83.7812 41.625 84.2656 42.375 84.9531C46.1562 88.7031 48.0469 92.4531 48.0469 96.2031C48.0469 96.3594 48 97.4531 47.9062 99.4844C47.8125 101.547 46.3594 104.203 43.5469 107.453C40.7656 110.734 37.4531 113.406 33.6094 115.469C29.2344 117.812 25.25 118.984 21.6562 118.984ZM23.9531 113.312C24.7656 113.312 26.0469 113 27.7969 112.375C29.5781 111.75 31.75 110.344 34.3125 108.156C36.875 106 38.7812 103.5 40.0312 100.656C40.625 99.3438 40.9219 98.0156 40.9219 96.6719C40.9219 94.4531 40.0469 92.1094 38.2969 89.6406C37.6406 88.7031 37 88.2344 36.375 88.2344C35.9688 88.2344 35.5469 88.4688 35.1094 88.9375C28.9219 95.9688 24.875 101.344 22.9688 105.062C21.6875 107.531 21.0469 109.422 21.0469 110.734C21.0469 111.422 21.2188 111.953 21.5625 112.328C22.125 112.984 22.9219 113.312 23.9531 113.312ZM57.2344 81.7656H56.6719C54.7969 81.7656 53.125 81.3438 51.6562 80.5C50.1562 79.625 49.1875 77.9531 48.75 75.4844C48.625 74.7344 48.5625 73.9688 48.5625 73.1875C48.5625 70.875 49.0938 68.4062 50.1562 65.7812C52.3125 60.8438 55.1094 57.2969 58.5469 55.1406C60.4219 53.9531 62.1719 53.3594 63.7969 53.3594C65.2031 53.3594 66.5156 53.7812 67.7344 54.625C69.2969 55.7188 70.0781 57.1719 70.0781 58.9844C70.0781 61.9219 68.0781 65.7656 64.0781 70.5156C62.2031 72.8281 61.2656 74.1875 61.2656 74.5938C61.2656 74.8438 61.4375 74.9688 61.7812 74.9688C63.0938 74.9688 65.6406 74.0938 69.4219 72.3438C73.2031 70.5938 77.1875 68.5312 81.375 66.1562C85.5938 63.75 89.1875 61.4531 92.1562 59.2656C92.9375 58.7344 93.5625 58.4688 94.0312 58.4688C94.2188 58.4688 94.3906 58.5156 94.5469 58.6094C94.8906 58.8594 95.0625 59.2812 95.0625 59.875C95.0625 60.0625 95.0156 60.4375 94.9219 61C94.8281 61.5625 94.4062 62.3281 93.6562 63.2969C91.4688 65.5469 88.1406 68.0938 83.6719 70.9375C79.2344 73.75 74.5781 76.2188 69.7031 78.3438C64.8594 80.4375 60.7031 81.5781 57.2344 81.7656ZM56.4844 70.7031C57.0469 70.7031 58 69.8438 59.3438 68.125C60.5938 66.5312 61.6094 64.8906 62.3906 63.2031C62.9219 61.9844 63.1875 61.0781 63.1875 60.4844C63.1875 59.8906 62.8594 59.5938 62.2031 59.5938C61.6719 59.5938 60.9375 59.9688 60 60.7188C59.0625 61.4688 58.2031 62.7188 57.4219 64.4688C56.4219 66.9688 55.9219 68.7188 55.9219 69.7188C55.9219 70.375 56.1094 70.7031 56.4844 70.7031ZM123.422 81.1094C119.047 81.1094 115.594 80.4062 113.062 79C110.562 77.5625 108.781 75.6406 107.719 73.2344C106.656 70.7969 106.125 68.0781 106.125 65.0781C106.125 61.2344 106.75 57.1875 108 52.9375C109.281 48.6875 110.75 44.7344 112.406 41.0781C114.094 37.3906 115.594 34.4062 116.906 32.125C118.25 29.8125 119.062 28.6094 119.344 28.5156C119.656 28.4219 119.938 28.375 120.188 28.375C121.219 28.375 122.016 28.7656 122.578 29.5469C123.141 30.2969 123.422 31.2656 123.422 32.4531L123.375 33.2031L123.422 33.5312C123.422 34.0938 123.109 35.0938 122.484 36.5312C121.859 37.9375 121.078 39.625 120.141 41.5938C118.984 44 117.766 46.6562 116.484 49.5625C115.234 52.4375 114.156 55.3281 113.25 58.2344C112.344 61.1406 111.891 63.8281 111.891 66.2969C111.891 71.5156 114.406 74.5469 119.438 75.3906C119.844 75.4531 120.297 75.4844 120.797 75.4844C123.234 75.4844 126.578 74.8438 130.828 73.5625C135.109 72.25 139.406 70.4688 143.719 68.2188C148.062 65.9375 151.719 63.3125 154.688 60.3438C155.562 59.5 156.328 59.0781 156.984 59.0781C157.953 59.0781 158.484 59.6875 158.578 60.9062C158.578 61.5 158.359 62.1406 157.922 62.8281C155.766 65.6406 152.734 68.375 148.828 71.0312C144.922 73.6875 141 75.9375 137.062 77.7812C133.156 79.5938 130.109 80.625 127.922 80.875C126.297 81.0312 124.797 81.1094 123.422 81.1094ZM91.6875 82.3281C91.375 82.3281 91.0312 82.1562 90.6562 81.8125L90.5625 81.7656C89.625 80.8906 89.1562 79.2344 89.1562 76.7969C89.1562 70.5469 91.3906 60.4375 95.8594 46.4688C98.7031 37.6875 101.953 28.8906 105.609 20.0781C110.391 8.51562 113.641 2.73438 115.359 2.73438C115.641 2.73438 116.078 2.84375 116.672 3.0625C117.266 3.25 117.812 3.53125 118.312 3.90625C118.812 4.28125 119.062 4.70312 119.062 5.17188C119.062 5.51562 117.484 9.53125 114.328 17.2188C110.891 25.4063 107.453 34.2031 104.016 43.6094C100.578 52.9844 97.9844 62.0938 96.2344 70.9375C94.7344 78.5312 93.2188 82.3281 91.6875 82.3281ZM153.656 120.016C152.656 120.016 151.812 119.875 151.125 119.594C150.406 119.312 149.953 118.891 149.766 118.328C149.516 117.547 149.391 116.594 149.391 115.469C149.391 110.938 151.5 103.781 155.719 94C159.344 85.3438 161.297 80.7344 161.578 80.1719C161.578 80.0469 161.516 79.9844 161.391 79.9844C160.922 79.9844 159.812 80.4688 158.062 81.4375C155.531 82.8438 153.25 83.5469 151.219 83.5469C149.688 83.5469 148.438 83.1719 147.469 82.4219C146.469 81.6719 145.969 80.625 145.969 79.2812C145.969 77.9688 146.859 75.1719 148.641 70.8906C149.766 68.2031 150.922 65.7656 152.109 63.5781C153.266 61.3906 154.156 60.0625 154.781 59.5938C155.875 59.0312 157.062 58.75 158.344 58.75C159.188 58.75 159.922 58.875 160.547 59.125C161.172 59.3438 161.484 59.6875 161.484 60.1562C161.484 60.4375 160.766 62.1406 159.328 65.2656L157.406 69.2031C156.25 71.3906 155.391 73.0469 154.828 74.1719C154.297 75.2969 154.031 76.0625 154.031 76.4688C154.031 76.75 154.156 76.8906 154.406 76.8906C154.656 76.8906 155.703 76.2969 157.547 75.1094C159.422 73.9219 161.625 72.3906 164.156 70.5156C167.125 68.2656 169.375 66.6719 170.906 65.7344C172.469 64.7969 173.703 64.3281 174.609 64.3281C174.891 64.3281 175.156 64.375 175.406 64.4688C176.875 64.9062 177.609 65.6406 177.609 66.6719C177.609 68.2344 176.234 71 173.484 74.9688C169.109 81.7812 165.109 89.1719 161.484 97.1406C157.891 105.141 156.094 110.438 156.094 113.031C156.094 113.844 156.312 114.25 156.75 114.25C157.938 114.25 161 112.078 165.938 107.734C170.906 103.422 176.656 97.9844 183.188 91.4219C189.719 84.8594 196.125 78.0469 202.406 70.9844C206.25 66.5469 209.25 63.3594 211.406 61.4219C213.562 59.4531 215.188 58.4688 216.281 58.4688C217.031 58.4688 217.609 58.875 218.016 59.6875L218.062 59.875C218.062 60.9688 215.703 64.2969 210.984 69.8594C206.297 75.4219 199.797 82.5312 191.484 91.1875C177.641 105.625 167.547 114.562 161.203 118C158.422 119.344 155.906 120.016 153.656 120.016ZM252.75 47.9688C251.25 47.9688 250.141 47.8125 249.422 47.5C248.453 47.125 247.969 46.4531 247.969 45.4844C247.969 42.3281 254.672 36.9531 268.078 29.3594C276.203 24.6719 283.734 20.75 290.672 17.5938C297.641 14.4062 306.312 10.9062 316.688 7.09375C325.344 3.8125 331.75 1.78125 335.906 1C337.531 0.6875 338.984 0.53125 340.266 0.53125C342.234 0.53125 343.75 0.90625 344.812 1.65625C345.906 2.375 346.453 3.01562 346.453 3.57812C346.453 3.76562 346.297 4.07813 345.984 4.51562C345.703 4.92188 344.516 5.125 342.422 5.125C339.578 5.125 333.469 6.89063 324.094 10.4219C314.719 13.9531 304.75 18.1406 294.188 22.9844C283.625 27.7969 274.672 32.3281 267.328 36.5781C264.078 38.5469 261.672 40.0781 260.109 41.1719C258.297 42.4844 257.391 43.4219 257.391 43.9844C257.391 44.4219 257.719 44.7656 258.375 45.0156C258.844 45.2656 259.078 45.5312 259.078 45.8125C259.078 45.9688 258.938 46.2031 258.656 46.5156C258.375 46.7969 257.656 47.1094 256.5 47.4531C255.375 47.7969 254.125 47.9688 252.75 47.9688ZM247.688 120.578C247.188 120.578 246.516 120.344 245.672 119.875C244.578 119.219 244.031 118.125 244.031 116.594C244.031 115.906 244.141 115.125 244.359 114.25C244.516 113.688 244.594 112.953 244.594 112.047C244.594 111.266 244.484 110.062 244.266 108.438C244.047 106.844 243.594 104.922 242.906 102.672C242.219 100.453 241.469 98.7188 240.656 97.4688C239.969 96.5625 239.406 95.6094 238.969 94.6094C238.531 93.6094 238.312 92.8438 238.312 92.3125C238.312 90.3438 239.734 88.125 242.578 85.6562C245.422 83.2188 248.969 81.1406 253.219 79.4219C254.156 79.0781 254.953 78.5625 255.609 77.875C256.266 77.1562 256.984 75.8594 257.766 73.9844C258.547 72.1094 259.594 69.2656 260.906 65.4531C263.938 56.9531 266.406 50.5 268.312 46.0938C270.25 41.6875 271.922 38.8594 273.328 37.6094C274.078 36.9219 274.844 36.5781 275.625 36.5781C276.219 36.5781 276.828 36.7969 277.453 37.2344C278.109 37.6094 278.438 38.0625 278.438 38.5938C278.438 39.25 277.859 40.6719 276.703 42.8594C276.047 44.2344 275 46.625 273.562 50.0312C271.625 54.5938 269.875 59.0625 268.312 63.4375C266.406 68.5 265.453 71.6406 265.453 72.8594C265.453 73.8281 265.891 74.3125 266.766 74.3125H267.656C268.25 74.3125 270.094 73.75 273.188 72.625C275.5 71.8438 277.281 71.4531 278.531 71.4531C280.031 71.4531 280.781 72.0156 280.781 73.1406C280.781 73.4219 279.875 74 278.062 74.875C276.25 75.7188 274 76.625 271.312 77.5938L262.5 81.1562C261.656 83.25 259.094 90.5 254.812 102.906C251.719 111.75 250.062 116.609 249.844 117.484C249.344 119.547 248.625 120.578 247.688 120.578ZM249.047 96.6719C249.172 96.6719 249.406 96.5469 249.75 96.2969C250.125 96.0781 250.875 94.3438 252 91.0938C252 90.9688 252.125 90.5625 252.375 89.875L252.891 88.2812C253.172 87.3438 253.312 86.6719 253.312 86.2656C253.312 86.0469 253.266 85.8906 253.172 85.7969C253.109 85.7344 253 85.7031 252.844 85.7031C252.5 85.7031 251.938 85.875 251.156 86.2188C250.375 86.5625 249.469 87.0938 248.438 87.8125C246.5 89.1875 245.531 90.4062 245.531 91.4688C245.531 91.625 245.578 91.8906 245.672 92.2656C245.766 92.6406 246.203 93.4062 246.984 94.5625C247.828 95.9688 248.516 96.6719 249.047 96.6719ZM320.484 85.0938C318.172 85.0938 316.125 84.6562 314.344 83.7812C312.594 82.9062 311.344 81.5156 310.594 79.6094C309.938 77.7656 309.562 75.1406 309.469 71.7344C308.812 72.0781 307.938 72.6719 306.844 73.5156C305.938 74.2031 304.938 74.9062 303.844 75.625C302.75 76.3438 301.594 76.9688 300.375 77.5C299.156 78 297.938 78.25 296.719 78.25C294.938 78.25 293.328 77.5938 291.891 76.2812C290.797 75.1562 290.25 73.8906 290.25 72.4844C290.25 70.6719 290.906 68.7969 292.219 66.8594C293.5 64.9219 294.953 63.1875 296.578 61.6562C298.172 60.125 299.531 59.0469 300.656 58.4219C301.781 57.7656 303.031 57.2812 304.406 56.9688C305.781 56.625 307.109 56.4531 308.391 56.4531C309.703 56.4531 310.859 56.6406 311.859 57.0156C312.859 57.3906 313.391 58.0312 313.453 58.9375C313.453 59.5312 313.141 59.9844 312.516 60.2969C311.922 60.5781 310.875 60.8125 309.375 61C307.562 61.2812 305.75 62.1094 303.938 63.4844C302.156 64.8594 300.656 66.3281 299.438 67.8906C298.219 69.4531 297.609 70.6094 297.609 71.3594C297.609 71.7344 297.812 71.9219 298.219 71.9219C298.844 71.9219 299.734 71.5469 300.891 70.7969C302.016 70.0469 303.266 69.1719 304.641 68.1719C306.391 66.8281 308.156 65.6094 309.938 64.5156C311.719 63.3906 313.234 62.8281 314.484 62.8281C316.203 62.8281 317.062 64.2344 317.062 67.0469C317.062 67.8281 317 68.7344 316.875 69.7656C316.719 70.9531 316.641 72.0156 316.641 72.9531C316.641 75.1719 317.062 76.7969 317.906 77.8281C318.781 78.8594 320.188 79.375 322.125 79.375H322.453C327.734 79.0312 333.484 77.3281 339.703 74.2656C345.922 71.1719 351.172 67.9062 355.453 64.4688L357.141 63.0625C358.797 61.6875 360.062 60.7031 360.938 60.1094C361.812 59.4844 362.641 59.1719 363.422 59.1719C363.922 59.1719 364.469 59.2812 365.062 59.5C365.531 59.6875 365.766 60 365.766 60.4375C365.766 60.875 365.531 61.3906 365.062 61.9844C358.375 68.7031 351.312 74.0625 343.875 78.0625C336.438 82.0625 329.359 84.375 322.641 85C321.891 85.0625 321.172 85.0938 320.484 85.0938ZM366.375 54.4844C365.906 54.4844 365.469 54.2812 365.062 53.875C364.938 53.7188 364.875 53.4688 364.875 53.125C364.875 52.625 365.078 51.7812 365.484 50.5938C365.922 49.375 366.594 48 367.5 46.4688C368.438 44.9375 369.328 43.875 370.172 43.2812C370.422 43.1562 370.781 43.0938 371.25 43.0938H371.906C372.281 43.0938 372.75 43.2188 373.312 43.4688C373.906 43.6875 374.203 44.0938 374.203 44.6875C374.203 45.8125 373.297 47.6562 371.484 50.2188C369.422 53.0625 367.719 54.4844 366.375 54.4844ZM323.812 125.5C322.469 125.5 321.531 124.766 321 123.297C320.906 122.891 320.859 122.438 320.859 121.938C320.859 119.906 321.75 117.125 323.531 113.594C325.281 110.062 327.938 106.094 331.5 101.688C335.031 97.3125 338.938 93.3438 343.219 89.7812C345.312 88.125 346.938 86.6719 348.094 85.4219C349.219 84.2031 350.312 82.5469 351.375 80.4531C352.406 78.3281 353.812 75.125 355.594 70.8438C357.438 66.375 358.906 63.0781 360 60.9531C361.062 58.7969 362 57.5312 362.812 57.1562C363.031 57.0625 363.266 57.0156 363.516 57.0156C364.141 57.0156 364.844 57.3438 365.625 58C366.156 58.3438 366.422 58.7188 366.422 59.125C366.422 59.4062 366.344 59.75 366.188 60.1562L365.25 62.4062C364.562 64.0312 363.578 66.5156 362.297 69.8594L359.297 77.3594L364.781 73.75C369.812 70.4688 374.516 67.5469 378.891 64.9844C383.266 62.3906 386.688 60.5312 389.156 59.4062C389.469 59.2188 389.906 59.0469 390.469 58.8906C390.781 58.7656 391.094 58.7031 391.406 58.7031C391.594 58.7031 391.844 58.75 392.156 58.8438C392.5 58.9375 392.734 59.3281 392.859 60.0156V60.1562C392.859 60.75 392.344 61.5312 391.312 62.5C390.312 63.4375 388.359 64.7812 385.453 66.5312C382.859 68.0938 379.672 70.125 375.891 72.625C372.141 75.0938 368.656 77.4531 365.438 79.7031C361.906 82.1719 359.234 84.1406 357.422 85.6094C355.578 87.1094 354.016 88.7344 352.734 90.4844C351.422 92.2656 349.766 94.7969 347.766 98.0781C339.484 111.484 333.109 119.969 328.641 123.531C326.672 124.844 325.062 125.5 323.812 125.5ZM328.312 117.578C328.531 117.578 329.156 116.984 330.188 115.797C331.188 114.609 332.484 112.906 334.078 110.688C335.641 108.5 337.109 106.281 338.484 104.031L341.766 98.875L338.766 101.359C337.234 102.703 335.656 104.453 334.031 106.609C332.406 108.766 331.031 110.859 329.906 112.891C328.781 114.953 328.203 116.484 328.172 117.484C328.203 117.547 328.25 117.578 328.312 117.578ZM410.953 85.0938C408.641 85.0938 406.594 84.6562 404.812 83.7812C403.062 82.9062 401.812 81.5156 401.062 79.6094C400.406 77.7656 400.031 75.1406 399.938 71.7344C399.281 72.0781 398.406 72.6719 397.312 73.5156C396.406 74.2031 395.406 74.9062 394.312 75.625C393.219 76.3438 392.062 76.9688 390.844 77.5C389.625 78 388.406 78.25 387.188 78.25C385.406 78.25 383.797 77.5938 382.359 76.2812C381.266 75.1562 380.719 73.8906 380.719 72.4844C380.719 70.6719 381.375 68.7969 382.688 66.8594C383.969 64.9219 385.422 63.1875 387.047 61.6562C388.641 60.125 390 59.0469 391.125 58.4219C392.25 57.7656 393.5 57.2812 394.875 56.9688C396.25 56.625 397.578 56.4531 398.859 56.4531C400.172 56.4531 401.328 56.6406 402.328 57.0156C403.328 57.3906 403.859 58.0312 403.922 58.9375C403.922 59.5312 403.609 59.9844 402.984 60.2969C402.391 60.5781 401.344 60.8125 399.844 61C398.031 61.2812 396.219 62.1094 394.406 63.4844C392.625 64.8594 391.125 66.3281 389.906 67.8906C388.688 69.4531 388.078 70.6094 388.078 71.3594C388.078 71.7344 388.281 71.9219 388.688 71.9219C389.312 71.9219 390.203 71.5469 391.359 70.7969C392.484 70.0469 393.734 69.1719 395.109 68.1719C396.859 66.8281 398.625 65.6094 400.406 64.5156C402.188 63.3906 403.703 62.8281 404.953 62.8281C406.672 62.8281 407.531 64.2344 407.531 67.0469C407.531 67.8281 407.469 68.7344 407.344 69.7656C407.188 70.9531 407.109 72.0156 407.109 72.9531C407.109 75.1719 407.531 76.7969 408.375 77.8281C409.25 78.8594 410.656 79.375 412.594 79.375H412.922C418.203 79.0312 423.953 77.3281 430.172 74.2656C436.391 71.1719 441.641 67.9062 445.922 64.4688L447.609 63.0625C449.266 61.6875 450.531 60.7031 451.406 60.1094C452.281 59.4844 453.109 59.1719 453.891 59.1719C454.391 59.1719 454.938 59.2812 455.531 59.5C456 59.6875 456.234 60 456.234 60.4375C456.234 60.875 456 61.3906 455.531 61.9844C448.844 68.7031 441.781 74.0625 434.344 78.0625C426.906 82.0625 419.828 84.375 413.109 85C412.359 85.0625 411.641 85.0938 410.953 85.0938ZM445.5 86.7812C445.062 86.7812 444.672 86.7031 444.328 86.5469C443.297 86.0781 442.781 85.3281 442.781 84.2969C442.781 83.3594 443.047 81.8281 443.578 79.7031C444.578 75.7031 445.953 71.5938 447.703 67.375C449.422 63.125 450.797 60.4219 451.828 59.2656C452.641 58.6406 453.562 58.3281 454.594 58.3281C455.406 58.3281 456.156 58.5 456.844 58.8438C457.531 59.1562 457.875 59.5625 457.875 60.0625C457.812 60.375 457.562 61.0625 457.125 62.125C456.688 63.1875 456.219 64.3594 455.719 65.6406L452.859 73.1406L455.109 71.5C459.891 67.9062 464.766 64.8906 469.734 62.4531C474.703 60.0156 478.375 58.7969 480.75 58.7969C481.125 58.7969 481.469 58.8438 481.781 58.9375C482.688 59.375 483.141 59.9219 483.141 60.5781C483.141 61.3281 482.75 62.0938 481.969 62.875C481.188 63.6562 480.344 64.1562 479.438 64.375C476.75 65.4688 472.859 67.7188 467.766 71.125C462.703 74.5312 458.359 77.8281 454.734 81.0156C450.609 84.8594 447.531 86.7812 445.5 86.7812ZM497.719 55.1406C496.562 55.1406 495.766 54.5781 495.328 53.4531C495.297 53.2969 495.281 53.1094 495.281 52.8906C495.281 52.1406 495.594 51.125 496.219 49.8438C496.875 48.5312 497.734 47.25 498.797 46C499.891 44.75 500.812 44.125 501.562 44.125C502.875 44.125 503.984 44.3906 504.891 44.9219C505.828 45.4219 506.297 46.0312 506.297 46.75C506.297 47.0625 506.016 47.7031 505.453 48.6719C504.922 49.6094 504.281 50.5781 503.531 51.5781C501.531 53.9531 499.594 55.1406 497.719 55.1406ZM492.891 83.5H490.5C489.031 83.5 487.391 82.5312 485.578 80.5938C484.234 78.9375 483.562 76.8906 483.562 74.4531C483.562 73.8594 483.688 72.5781 483.938 70.6094C484.188 68.6094 485.453 65.9219 487.734 62.5469C489.609 59.7031 491.25 58.2812 492.656 58.2812C493.594 58.2812 494.578 58.75 495.609 59.6875C496.422 60.3438 496.828 60.875 496.828 61.2812C496.828 61.5938 496.688 62.0156 496.406 62.5469C496.156 63.0781 495.625 63.9688 494.812 65.2188C493.75 66.8438 492.891 68.6562 492.234 70.6562C491.453 73 491.062 74.9531 491.062 76.5156C491.062 77.7031 491.375 78.2969 492 78.2969C494.094 78.2969 497.172 77.375 501.234 75.5312C505.328 73.6562 509.609 71.3906 514.078 68.7344C518.578 66.0781 522.5 63.5781 525.844 61.2344C528.469 59.3906 530.328 58.4688 531.422 58.4688C532.516 58.4688 533.281 58.9531 533.719 59.9219C533.781 60.0469 533.812 60.1875 533.812 60.3438C533.812 61.2812 532.734 62.75 530.578 64.75C528.422 66.75 525.344 69.0625 521.344 71.6875C517.375 74.3125 513.078 76.8125 508.453 79.1875C506.578 80.1562 504.203 81.125 501.328 82.0938C498.484 83.0312 495.672 83.5 492.891 83.5ZM524.531 85.0469C523.281 85.0469 522.266 84.5 521.484 83.4062C521.203 83 521.062 82.3906 521.062 81.5781C521.062 78.8281 522.641 74.1719 525.797 67.6094C527.547 64.0156 528.922 61.6094 529.922 60.3906C530.922 59.1406 532.047 58.5156 533.297 58.5156C534.797 58.5156 535.547 59.3125 535.547 60.9062C535.547 62.3438 534.922 64.5 533.672 67.375C532.422 70.2188 531.797 71.8125 531.797 72.1562H531.844C531.969 72.1562 532.531 71.8594 533.531 71.2656C534.531 70.6719 535.734 69.8906 537.141 68.9219C541.641 65.7344 545.297 64.1406 548.109 64.1406C551.703 64.1406 553.984 66.7344 554.953 71.9219C555.359 74.3281 555.781 76.0625 556.219 77.125C556.688 78.1875 557.438 78.7188 558.469 78.7188C559.531 78.7188 561.094 78.2188 563.156 77.2188C566.375 75.75 570.484 73.3281 575.484 69.9531C580.516 66.5469 584.516 63.5 587.484 60.8125C589.391 59.3125 591.062 58.5625 592.5 58.5625C593.656 58.5625 594.266 59.0312 594.328 59.9688C594.328 60.7812 593.688 61.7812 592.406 62.9688C586 69.5 579.625 74.6406 573.281 78.3906C566.938 82.1094 561.484 83.9688 556.922 83.9688C555.391 83.9688 554 83.7344 552.75 83.2656C550.938 82.4531 549.719 81.0156 549.094 78.9531C548.469 76.8594 548.078 74.8594 547.922 72.9531C547.797 71.9531 547.656 71.1406 547.5 70.5156C547.375 69.8594 547.172 69.5312 546.891 69.5312C545.391 69.5312 541.266 72.7188 534.516 79.0938C530.266 83.0625 526.938 85.0469 524.531 85.0469ZM597.281 55.1406C596.125 55.1406 595.328 54.5781 594.891 53.4531C594.859 53.2969 594.844 53.1094 594.844 52.8906C594.844 52.1406 595.156 51.125 595.781 49.8438C596.438 48.5312 597.297 47.25 598.359 46C599.453 44.75 600.375 44.125 601.125 44.125C602.438 44.125 603.547 44.3906 604.453 44.9219C605.391 45.4219 605.859 46.0312 605.859 46.75C605.859 47.0625 605.578 47.7031 605.016 48.6719C604.484 49.6094 603.844 50.5781 603.094 51.5781C601.094 53.9531 599.156 55.1406 597.281 55.1406ZM592.453 83.5H590.062C588.594 83.5 586.953 82.5312 585.141 80.5938C583.797 78.9375 583.125 76.8906 583.125 74.4531C583.125 73.8594 583.25 72.5781 583.5 70.6094C583.75 68.6094 585.016 65.9219 587.297 62.5469C589.172 59.7031 590.812 58.2812 592.219 58.2812C593.156 58.2812 594.141 58.75 595.172 59.6875C595.984 60.3438 596.391 60.875 596.391 61.2812C596.391 61.5938 596.25 62.0156 595.969 62.5469C595.719 63.0781 595.188 63.9688 594.375 65.2188C593.312 66.8438 592.453 68.6562 591.797 70.6562C591.016 73 590.625 74.9531 590.625 76.5156C590.625 77.7031 590.938 78.2969 591.562 78.2969C593.656 78.2969 596.734 77.375 600.797 75.5312C604.891 73.6562 609.172 71.3906 613.641 68.7344C618.141 66.0781 622.062 63.5781 625.406 61.2344C628.031 59.3906 629.891 58.4688 630.984 58.4688C632.078 58.4688 632.844 58.9531 633.281 59.9219C633.344 60.0469 633.375 60.1875 633.375 60.3438C633.375 61.2812 632.297 62.75 630.141 64.75C627.984 66.75 624.906 69.0625 620.906 71.6875C616.938 74.3125 612.641 76.8125 608.016 79.1875C606.141 80.1562 603.766 81.125 600.891 82.0938C598.047 83.0312 595.234 83.5 592.453 83.5Z" fill="#EA5273"/>
</svg>
