<svg width="32" height="26" viewBox="0 0 32 26" fill="none" xmlns="http://www.w3.org/2000/svg">
<path d="M31.0172 3.6646C29.8846 4.15847 28.6778 4.48583 27.4196 4.64478C28.714 3.87653 29.7019 2.66928 30.1664 1.21415C28.9595 1.92941 27.6271 2.43464 26.2071 2.71659C25.0611 1.50366 23.4279 0.752441 21.6462 0.752441C18.1895 0.752441 15.4065 3.5416 15.4065 6.96088C15.4065 7.45286 15.4484 7.92592 15.5512 8.37628C10.3603 8.12461 5.76714 5.65145 2.68155 1.884C2.14285 2.81309 1.82687 3.87653 1.82687 5.02133C1.82687 7.17092 2.94043 9.0764 4.60029 10.1796C3.59714 10.1607 2.61302 9.87115 1.77928 9.41512C1.77928 9.43404 1.77928 9.45864 1.77928 9.48324C1.77928 12.4995 3.94358 15.0048 6.78171 15.5819C6.27348 15.7201 5.71955 15.7863 5.14469 15.7863C4.74496 15.7863 4.34141 15.7636 3.96261 15.6803C4.7716 18.1383 7.06724 19.9454 9.79688 20.0041C7.67256 21.656 4.97528 22.6513 2.05529 22.6513C1.54325 22.6513 1.05214 22.6286 0.561035 22.5662C3.32684 24.3392 6.60469 25.3516 10.1395 25.3516C21.6291 25.3516 27.9107 15.8904 27.9107 7.68939C27.9107 7.41502 27.9012 7.1501 27.8879 6.88708C29.127 6.01287 30.1683 4.92105 31.0172 3.6646Z" fill="white"/>
</svg>
